<svg width="50" height="50" viewBox="0 0 50 50" fill="none" xmlns="http://www.w3.org/2000/svg">
<path d="M35.1562 47.6562H31.25C31.0428 47.6562 30.8441 47.5739 30.6976 47.4274C30.5511 47.2809 30.4688 47.0822 30.4688 46.875C30.4688 46.6678 30.5511 46.4691 30.6976 46.3226C30.8441 46.1761 31.0428 46.0938 31.25 46.0938H35.1562C35.3635 46.0938 35.5622 46.1761 35.7087 46.3226C35.8552 46.4691 35.9375 46.6678 35.9375 46.875C35.9375 47.0822 35.8552 47.2809 35.7087 47.4274C35.5622 47.5739 35.3635 47.6562 35.1562 47.6562Z" fill="#EA9D2D"/>
<path d="M34.375 39.8438H32.0312C31.824 39.8438 31.6253 39.7614 31.4788 39.6149C31.3323 39.4684 31.25 39.2697 31.25 39.0625C31.25 38.8553 31.3323 38.6566 31.4788 38.5101C31.6253 38.3636 31.824 38.2812 32.0312 38.2812H34.375C34.5822 38.2812 34.7809 38.3636 34.9274 38.5101C35.0739 38.6566 35.1562 38.8553 35.1562 39.0625C35.1562 39.2697 35.0739 39.4684 34.9274 39.6149C34.7809 39.7614 34.5822 39.8438 34.375 39.8438Z" fill="#EA9D2D"/>
<path d="M27.3438 24.2188H36.9398C37.3059 24.2187 37.6646 24.3216 37.975 24.5156L43.75 28.125L42.9688 31.25L37.398 28.0908L35.5469 26.8802L27.3438 24.2188Z" fill="#55300B"/>
<path d="M34.0662 16.0883L35.9375 13.2812L38.2813 17.1875L34.0662 16.0883Z" fill="#027E2A"/>
<path d="M32.0312 14.8438L38.2812 17.1875L35.1562 24.2188L28.9062 21.875L32.0312 14.8438Z" fill="#02A437"/>
<path d="M20.3125 18.75L15.625 28.9062H18.75L21.0938 24.2188L20.3125 18.75Z" fill="#FDC9A6"/>
<path d="M18.8392 21.942L21.875 24.2188L23.4375 21.875L21.0937 17.9688L20.3125 18.75L18.8392 21.942Z" fill="#2CBFF4"/>
<path d="M10.9375 28.9062H31.25C32.4932 28.9063 33.6855 29.4001 34.5646 30.2792C35.4436 31.1583 35.9375 32.3505 35.9375 33.5938C35.9375 34.837 35.4436 36.0292 34.5646 36.9083C33.6855 37.7874 32.4932 38.2812 31.25 38.2812H10.9375V28.9062Z" fill="#D32B39"/>
<path d="M26.5625 11.7188C26.5625 9.99286 25.1634 8.59375 23.4375 8.59375C21.7116 8.59375 20.3125 9.99286 20.3125 11.7188V13.2812C20.3125 15.0071 21.7116 16.4062 23.4375 16.4062C25.1634 16.4062 26.5625 15.0071 26.5625 13.2812V11.7188Z" fill="#FDC9A6"/>
<path d="M26.5625 10.9375H21.875L20.3125 12.5L19.1767 9.66034C19.0451 9.33143 18.9955 8.97545 19.0322 8.62311C19.0689 8.27076 19.1907 7.93263 19.3872 7.63788C19.6529 7.23931 20.0423 6.93917 20.4954 6.78367C20.9484 6.62817 21.4401 6.62594 21.8945 6.77733L22.6563 7.03124L23.269 5.80575C23.5279 5.28792 23.9719 4.8863 24.5131 4.68056C25.0543 4.47482 25.653 4.47997 26.1905 4.69501C26.721 4.90721 27.154 5.30863 27.4056 5.82161C27.6572 6.3346 27.7096 6.92267 27.5526 7.47206L26.5625 10.9375Z" fill="#683B0D"/>
<path d="M21.875 16.4062L20.3125 18.75V22.0107C20.3125 22.4352 20.4113 22.8539 20.6012 23.2336L23.4375 28.9062L27.3438 24.2188L25.7812 21.875L25 16.4062H21.875Z" fill="#0296E5"/>
<path d="M22.6562 21.875L31.4771 23.9105C31.8577 23.9984 32.2569 23.9556 32.6103 23.7891C32.9637 23.6226 33.2508 23.3421 33.4254 22.9926C33.5406 22.7622 33.6032 22.5092 33.6087 22.2517C33.6143 21.9942 33.5627 21.7387 33.4575 21.5036C33.3524 21.2685 33.1964 21.0597 33.0008 20.8921C32.8053 20.7246 32.5749 20.6025 32.3265 20.5348L25.7812 18.75L22.6562 21.875Z" fill="#FDC9A6"/>
<path d="M25.7813 18.75L25.3588 17.0605C25.2564 16.6505 25.0199 16.2865 24.6868 16.0264C24.3537 15.7663 23.9432 15.625 23.5206 15.625C23.2326 15.6249 22.9484 15.6905 22.6896 15.8168C22.4308 15.943 22.2042 16.1266 22.0269 16.3536C21.8497 16.5806 21.7266 16.845 21.6668 17.1267C21.6071 17.4084 21.6124 17.7 21.6823 17.9794L22.6563 21.875L25.7813 18.75Z" fill="#2CBFF4"/>
<path d="M27.3438 24.2188L35.7945 26.3314C36.0824 26.4034 36.3501 26.54 36.5773 26.7309C36.8044 26.9217 36.9852 27.1619 37.1057 27.433L39.8438 33.5938L37.5 35.9375L34.375 28.9062H23.4375L27.3438 24.2188Z" fill="#683B0D"/>
<path d="M43.75 28.125L45.3125 27.3438L47.6562 28.125L46.0938 32.0312L42.9688 31.25L43.75 28.125Z" fill="#CBCBCB"/>
<path d="M39.8438 33.5938L42.9688 35.1562V37.5L38.2812 38.2812L37.5 35.9375L39.8438 33.5938Z" fill="#CBCBCB"/>
<path d="M10.8398 30.4688H8.49609C8.28889 30.4688 8.09018 30.3864 7.94367 30.2399C7.79715 30.0934 7.71484 29.8947 7.71484 29.6875C7.71484 29.4803 7.79715 29.2816 7.94367 29.1351C8.09018 28.9886 8.28889 28.9062 8.49609 28.9062H10.8398C11.047 28.9062 11.2458 28.9886 11.3923 29.1351C11.5388 29.2816 11.6211 29.4803 11.6211 29.6875C11.6211 29.8947 11.5388 30.0934 11.3923 30.2399C11.2458 30.3864 11.047 30.4688 10.8398 30.4688Z" fill="#D32B39"/>
<path d="M12.5 39.0625H8.59375C8.38655 39.0625 8.18784 38.9802 8.04132 38.8337C7.89481 38.6872 7.8125 38.4885 7.8125 38.2812C7.8125 38.074 7.89481 37.8753 8.04132 37.7288C8.18784 37.5823 8.38655 37.5 8.59375 37.5H12.5C12.7072 37.5 12.9059 37.5823 13.0524 37.7288C13.1989 37.8753 13.2812 38.074 13.2812 38.2812C13.2812 38.4885 13.1989 38.6872 13.0524 38.8337C12.9059 38.9802 12.7072 39.0625 12.5 39.0625Z" fill="#D32B39"/>
<path d="M10.9375 32.0312H31.25C31.6644 32.0312 32.0618 32.1959 32.3549 32.4889C32.6479 32.7819 32.8125 33.1793 32.8125 33.5938C32.8125 34.0082 32.6479 34.4056 32.3549 34.6986C32.0618 34.9916 31.6644 35.1562 31.25 35.1562H10.9375V32.0312Z" fill="#CBCBCB"/>
<path d="M32.8125 47.6562H12.5C11.2568 47.6562 10.0645 47.1624 9.18544 46.2833C8.30636 45.4042 7.8125 44.212 7.8125 42.9688C7.8125 41.7255 8.30636 40.5333 9.18544 39.6542C10.0645 38.7751 11.2568 38.2812 12.5 38.2812H32.8125V47.6562Z" fill="#EA9D2D"/>
<path d="M32.8125 41.4062H12.5C12.0856 41.4062 11.6882 41.5709 11.3951 41.8639C11.1021 42.1569 10.9375 42.5543 10.9375 42.9688C10.9375 43.3832 11.1021 43.7806 11.3951 44.0736C11.6882 44.3666 12.0856 44.5312 12.5 44.5312H32.8125V41.4062Z" fill="#CBCBCB"/>
<path d="M13.4153 17.0534L13.2812 17.1875H8.59375L8.45967 17.0534C7.75911 16.3529 7.2034 15.5212 6.82427 14.6059C6.44513 13.6905 6.25 12.7095 6.25 11.7188C6.25 10.4755 6.74386 9.28326 7.62294 8.40419C8.50201 7.52511 9.6943 7.03125 10.9375 7.03125C12.1807 7.03125 13.373 7.52511 14.2521 8.40419C15.1311 9.28326 15.625 10.4755 15.625 11.7188C15.625 12.7095 15.4299 13.6905 15.0507 14.6059C14.6716 15.5212 14.1159 16.3529 13.4153 17.0534Z" fill="#EA9D2D"/>
<path d="M13.0525 11.1663C12.9799 11.0938 12.8938 11.0362 12.799 10.9969C12.7042 10.9577 12.6026 10.9375 12.5 10.9375C12.3974 10.9375 12.2958 10.9577 12.201 10.9969C12.1063 11.0362 12.0201 11.0938 11.9476 11.1663L10.9375 12.1765L9.92746 11.1663C9.78095 11.0198 9.58223 10.9375 9.37502 10.9375C9.16781 10.9375 8.9691 11.0198 8.82258 11.1663C8.67606 11.3128 8.59375 11.5115 8.59375 11.7187C8.59375 11.926 8.67606 12.1247 8.82258 12.2712L10.1563 13.6049V17.1875C10.1563 17.3947 10.2386 17.5934 10.3851 17.7399C10.5316 17.8864 10.7303 17.9687 10.9375 17.9687C11.1447 17.9687 11.3434 17.8864 11.4899 17.7399C11.6365 17.5934 11.7188 17.3947 11.7188 17.1875V13.6049L13.0525 12.2712C13.125 12.1986 13.1826 12.1125 13.2218 12.0177C13.2611 11.9229 13.2813 11.8213 13.2813 11.7187C13.2813 11.6161 13.2611 11.5146 13.2218 11.4198C13.1826 11.325 13.125 11.2389 13.0525 11.1663Z" fill="#C38325"/>
<path d="M10.9375 4.6875C10.7303 4.6875 10.5316 4.60519 10.3851 4.45868C10.2386 4.31216 10.1562 4.11345 10.1562 3.90625V2.34375C10.1562 2.13655 10.2386 1.93784 10.3851 1.79132C10.5316 1.64481 10.7303 1.5625 10.9375 1.5625C11.1447 1.5625 11.3434 1.64481 11.4899 1.79132C11.6364 1.93784 11.7188 2.13655 11.7188 2.34375V3.90625C11.7188 4.11345 11.6364 4.31216 11.4899 4.45868C11.3434 4.60519 11.1447 4.6875 10.9375 4.6875Z" fill="#FBB540"/>
<path d="M7.42268 5.62958C7.28542 5.62972 7.15054 5.59368 7.03163 5.52511C6.91272 5.45653 6.81397 5.35784 6.74534 5.23896L5.96409 3.88583C5.91198 3.79695 5.87797 3.69864 5.86401 3.59656C5.85006 3.49448 5.85643 3.39064 5.88276 3.29103C5.9091 3.19142 5.95488 3.09801 6.01746 3.01616C6.08005 2.93432 6.1582 2.86566 6.24743 2.81415C6.33666 2.76263 6.43519 2.72927 6.53736 2.71599C6.63954 2.70271 6.74332 2.70977 6.84276 2.73677C6.94219 2.76376 7.0353 2.81016 7.11673 2.87328C7.19815 2.93641 7.26629 3.01502 7.31722 3.10459L8.09847 4.45771C8.167 4.57642 8.2031 4.71106 8.20313 4.84813C8.20317 4.9852 8.16714 5.11987 8.09867 5.23861C8.03019 5.35735 7.93168 5.45599 7.81303 5.52462C7.69438 5.59324 7.55975 5.62944 7.42268 5.62958Z" fill="#FBB540"/>
<path d="M4.84753 8.20314C4.71058 8.20318 4.57606 8.16703 4.45759 8.09835L3.10446 7.3171C2.92649 7.21276 2.79701 7.04227 2.74428 6.84282C2.69154 6.64337 2.71984 6.43116 2.823 6.2525C2.92615 6.07383 3.09578 5.94323 3.29488 5.88917C3.49398 5.83512 3.70637 5.86201 3.88571 5.96398L5.23884 6.74523C5.38786 6.83123 5.50433 6.96402 5.57016 7.123C5.63599 7.28197 5.64749 7.45823 5.60289 7.62441C5.55829 7.79059 5.46007 7.9374 5.32349 8.04204C5.1869 8.14669 5.01959 8.20332 4.84753 8.20314Z" fill="#FBB540"/>
<path d="M3.90625 11.7188H2.34375C2.13655 11.7188 1.93784 11.6364 1.79132 11.4899C1.64481 11.3434 1.5625 11.1447 1.5625 10.9375C1.5625 10.7303 1.64481 10.5316 1.79132 10.3851C1.93784 10.2386 2.13655 10.1562 2.34375 10.1562H3.90625C4.11345 10.1562 4.31216 10.2386 4.45868 10.3851C4.60519 10.5316 4.6875 10.7303 4.6875 10.9375C4.6875 11.1447 4.60519 11.3434 4.45868 11.4899C4.31216 11.6364 4.11345 11.7188 3.90625 11.7188Z" fill="#FBB540"/>
<path d="M3.4961 16.0156C3.32402 16.0158 3.1567 15.9592 3.0201 15.8546C2.8835 15.75 2.78526 15.6031 2.74065 15.437C2.69603 15.2708 2.70753 15.0945 2.77335 14.9355C2.83918 14.7765 2.95565 14.6437 3.10469 14.5577L4.45782 13.7765C4.63716 13.6745 4.84955 13.6476 5.04865 13.7017C5.24774 13.7557 5.41738 13.8863 5.52053 14.065C5.62368 14.2437 5.65198 14.4559 5.59925 14.6553C5.54652 14.8548 5.41704 15.0253 5.23907 15.1296L3.88594 15.9109C3.76747 15.9795 3.633 16.0156 3.4961 16.0156Z" fill="#FBB540"/>
<path d="M14.4523 5.62958C14.3153 5.62944 14.1806 5.59324 14.062 5.52462C13.9433 5.45599 13.8448 5.35735 13.7763 5.23861C13.7079 5.11987 13.6718 4.9852 13.6719 4.84813C13.6719 4.71106 13.708 4.57642 13.7765 4.45771L14.5578 3.10459C14.6087 3.01502 14.6769 2.93641 14.7583 2.87328C14.8397 2.81016 14.9328 2.76376 15.0323 2.73677C15.1317 2.70977 15.2355 2.70271 15.3376 2.71599C15.4398 2.72927 15.5384 2.76263 15.6276 2.81415C15.7168 2.86566 15.795 2.93432 15.8575 3.01616C15.9201 3.09801 15.9659 3.19142 15.9922 3.29103C16.0186 3.39064 16.025 3.49448 16.011 3.59656C15.997 3.69864 15.963 3.79695 15.9109 3.88583L15.1297 5.23896C15.061 5.35784 14.9623 5.45653 14.8434 5.52511C14.7245 5.59368 14.5896 5.62972 14.4523 5.62958Z" fill="#FBB540"/>
<path d="M13.2812 20.3125L11.7188 21.875H10.1562L8.59375 20.3125V17.1875H13.2812V20.3125Z" fill="#CBCBCB"/>
<path d="M8.59375 20.3125H13.2812L11.7188 21.875H10.1562L8.59375 20.3125Z" fill="#EAEAE8"/>
</svg>
